<mxfile host="Electron" modified="2023-05-27T09:11:06.454Z" agent="Mozilla/5.0 (Windows NT 10.0; Win64; x64) AppleWebKit/537.36 (KHTML, like Gecko) draw.io/21.2.8 Chrome/112.0.5615.165 Electron/24.2.0 Safari/537.36" etag="0YTUGOw1LR3Qj0pTOcfY" version="21.2.8" type="device">
  <diagram id="tL4neeLB4CcV3O5pq-OP" name="Страница 1">
    <mxGraphModel dx="2514" dy="2162" grid="1" gridSize="10" guides="1" tooltips="1" connect="1" arrows="1" fold="1" page="1" pageScale="1" pageWidth="827" pageHeight="1169" math="0" shadow="0">
      <root>
        <mxCell id="0" />
        <mxCell id="1" parent="0" />
        <mxCell id="a-9ykdPwMbvV5pBF0nit-3" style="edgeStyle=orthogonalEdgeStyle;rounded=0;orthogonalLoop=1;jettySize=auto;html=1;exitX=0.5;exitY=1;exitDx=0;exitDy=0;entryX=0.5;entryY=0;entryDx=0;entryDy=0;" parent="1" source="a-9ykdPwMbvV5pBF0nit-1" target="a-9ykdPwMbvV5pBF0nit-2" edge="1">
          <mxGeometry relative="1" as="geometry" />
        </mxCell>
        <mxCell id="a-9ykdPwMbvV5pBF0nit-1" value="Начало" style="ellipse;whiteSpace=wrap;html=1;" parent="1" vertex="1">
          <mxGeometry x="340.37" y="-90" width="120" height="80" as="geometry" />
        </mxCell>
        <mxCell id="ful76AXEt7FcOkuuH9QI-4" style="edgeStyle=orthogonalEdgeStyle;rounded=0;orthogonalLoop=1;jettySize=auto;html=1;exitX=0.5;exitY=1;exitDx=0;exitDy=0;entryX=0.5;entryY=0;entryDx=0;entryDy=0;" parent="1" source="a-9ykdPwMbvV5pBF0nit-2" edge="1">
          <mxGeometry relative="1" as="geometry">
            <mxPoint x="401.46000000000004" y="250" as="targetPoint" />
          </mxGeometry>
        </mxCell>
        <mxCell id="xX_mOU44c7n5gJGWRsLI-12" style="edgeStyle=orthogonalEdgeStyle;rounded=0;orthogonalLoop=1;jettySize=auto;html=1;exitX=0.5;exitY=1;exitDx=0;exitDy=0;entryX=0.5;entryY=0;entryDx=0;entryDy=0;" edge="1" parent="1" source="a-9ykdPwMbvV5pBF0nit-2" target="xX_mOU44c7n5gJGWRsLI-9">
          <mxGeometry relative="1" as="geometry">
            <Array as="points">
              <mxPoint x="401" y="190" />
              <mxPoint x="1000" y="190" />
            </Array>
          </mxGeometry>
        </mxCell>
        <mxCell id="xX_mOU44c7n5gJGWRsLI-13" style="edgeStyle=orthogonalEdgeStyle;rounded=0;orthogonalLoop=1;jettySize=auto;html=1;exitX=0.5;exitY=1;exitDx=0;exitDy=0;" edge="1" parent="1" source="a-9ykdPwMbvV5pBF0nit-2" target="xX_mOU44c7n5gJGWRsLI-11">
          <mxGeometry relative="1" as="geometry" />
        </mxCell>
        <mxCell id="a-9ykdPwMbvV5pBF0nit-2" value="Компьютер загадывает число x&lt;br&gt;i = 0&lt;br&gt;Пользователь вводит число y&lt;br&gt;b = 0&lt;br&gt;a = 0&lt;br&gt;n = 0" style="rounded=0;whiteSpace=wrap;html=1;" parent="1" vertex="1">
          <mxGeometry x="294.46000000000004" y="40" width="213.78" height="100" as="geometry" />
        </mxCell>
        <mxCell id="a-9ykdPwMbvV5pBF0nit-6" style="edgeStyle=orthogonalEdgeStyle;rounded=0;orthogonalLoop=1;jettySize=auto;html=1;exitX=0.5;exitY=1;exitDx=0;exitDy=0;" parent="1" source="a-9ykdPwMbvV5pBF0nit-7" edge="1">
          <mxGeometry relative="1" as="geometry">
            <mxPoint x="400" y="660" as="targetPoint" />
          </mxGeometry>
        </mxCell>
        <mxCell id="ful76AXEt7FcOkuuH9QI-101" style="edgeStyle=orthogonalEdgeStyle;rounded=0;orthogonalLoop=1;jettySize=auto;html=1;exitX=1;exitY=0.5;exitDx=0;exitDy=0;entryX=0.5;entryY=0;entryDx=0;entryDy=0;" parent="1" source="a-9ykdPwMbvV5pBF0nit-7" target="CqEqGzZt2KuTXMHUtGIb-19" edge="1">
          <mxGeometry relative="1" as="geometry">
            <Array as="points">
              <mxPoint x="660" y="570" />
              <mxPoint x="660" y="540" />
              <mxPoint x="1082" y="540" />
            </Array>
          </mxGeometry>
        </mxCell>
        <mxCell id="a-9ykdPwMbvV5pBF0nit-7" value="y не равно x" style="rhombus;whiteSpace=wrap;html=1;" parent="1" vertex="1">
          <mxGeometry x="278.5" y="520" width="243.75" height="100" as="geometry" />
        </mxCell>
        <mxCell id="a-9ykdPwMbvV5pBF0nit-8" value="Конец" style="ellipse;whiteSpace=wrap;html=1;" parent="1" vertex="1">
          <mxGeometry x="577.0500000000001" y="2190" width="120" height="80" as="geometry" />
        </mxCell>
        <mxCell id="a-9ykdPwMbvV5pBF0nit-24" style="edgeStyle=orthogonalEdgeStyle;rounded=0;orthogonalLoop=1;jettySize=auto;html=1;exitX=0.5;exitY=1;exitDx=0;exitDy=0;entryX=0.5;entryY=0;entryDx=0;entryDy=0;" parent="1" source="a-9ykdPwMbvV5pBF0nit-11" edge="1">
          <mxGeometry relative="1" as="geometry">
            <mxPoint x="400" y="750" as="targetPoint" />
          </mxGeometry>
        </mxCell>
        <mxCell id="a-9ykdPwMbvV5pBF0nit-11" value="Ввод числа(y)" style="shape=parallelogram;perimeter=parallelogramPerimeter;whiteSpace=wrap;html=1;fixedSize=1;" parent="1" vertex="1">
          <mxGeometry x="278.44" y="660" width="248.75" height="70" as="geometry" />
        </mxCell>
        <mxCell id="a-9ykdPwMbvV5pBF0nit-12" value="Да" style="text;html=1;align=center;verticalAlign=middle;resizable=0;points=[];autosize=1;strokeColor=none;fillColor=none;" parent="1" vertex="1">
          <mxGeometry x="394" y="610" width="40" height="30" as="geometry" />
        </mxCell>
        <mxCell id="ful76AXEt7FcOkuuH9QI-91" style="edgeStyle=orthogonalEdgeStyle;rounded=0;orthogonalLoop=1;jettySize=auto;html=1;exitX=0;exitY=0.5;exitDx=0;exitDy=0;" parent="1" source="a-9ykdPwMbvV5pBF0nit-16" edge="1">
          <mxGeometry relative="1" as="geometry">
            <mxPoint x="400" y="373.0769230769231" as="targetPoint" />
            <Array as="points">
              <mxPoint x="170" y="2080" />
              <mxPoint x="170" y="490" />
              <mxPoint x="260" y="490" />
              <mxPoint x="260" y="373" />
            </Array>
          </mxGeometry>
        </mxCell>
        <mxCell id="a-9ykdPwMbvV5pBF0nit-16" value="Вывод b и a" style="shape=parallelogram;perimeter=parallelogramPerimeter;whiteSpace=wrap;html=1;fixedSize=1;" parent="1" vertex="1">
          <mxGeometry x="577.0500000000001" y="2050" width="120" height="60" as="geometry" />
        </mxCell>
        <mxCell id="a-9ykdPwMbvV5pBF0nit-17" value="" style="endArrow=none;dashed=1;html=1;dashPattern=1 3;strokeWidth=2;rounded=0;exitX=1;exitY=0.5;exitDx=0;exitDy=0;startArrow=none;" parent="1" edge="1">
          <mxGeometry width="50" height="50" relative="1" as="geometry">
            <mxPoint x="1049.31" y="1875" as="sourcePoint" />
            <mxPoint x="1049.31" y="1875" as="targetPoint" />
          </mxGeometry>
        </mxCell>
        <mxCell id="nlBPueckVn01PJw-sLPn-10" style="edgeStyle=orthogonalEdgeStyle;rounded=0;orthogonalLoop=1;jettySize=auto;html=1;exitX=0.5;exitY=1;exitDx=0;exitDy=0;entryX=0.5;entryY=0;entryDx=0;entryDy=0;" parent="1" source="a-9ykdPwMbvV5pBF0nit-35" target="CqEqGzZt2KuTXMHUtGIb-1" edge="1">
          <mxGeometry relative="1" as="geometry" />
        </mxCell>
        <mxCell id="ful76AXEt7FcOkuuH9QI-93" style="edgeStyle=orthogonalEdgeStyle;rounded=0;orthogonalLoop=1;jettySize=auto;html=1;exitX=1;exitY=0.5;exitDx=0;exitDy=0;entryX=0.5;entryY=0;entryDx=0;entryDy=0;" parent="1" source="a-9ykdPwMbvV5pBF0nit-35" target="ful76AXEt7FcOkuuH9QI-92" edge="1">
          <mxGeometry relative="1" as="geometry">
            <Array as="points">
              <mxPoint x="1100" y="1670" />
              <mxPoint x="1100" y="1940" />
              <mxPoint x="637" y="1940" />
            </Array>
          </mxGeometry>
        </mxCell>
        <mxCell id="a-9ykdPwMbvV5pBF0nit-35" value="for i in range(4)" style="rhombus;whiteSpace=wrap;html=1;" parent="1" vertex="1">
          <mxGeometry x="517.0600000000001" y="1630" width="242.92" height="80" as="geometry" />
        </mxCell>
        <mxCell id="nlBPueckVn01PJw-sLPn-11" style="edgeStyle=orthogonalEdgeStyle;rounded=0;orthogonalLoop=1;jettySize=auto;html=1;exitX=1;exitY=0.5;exitDx=0;exitDy=0;entryX=0;entryY=0.5;entryDx=0;entryDy=0;" parent="1" source="CqEqGzZt2KuTXMHUtGIb-1" target="CqEqGzZt2KuTXMHUtGIb-3" edge="1">
          <mxGeometry relative="1" as="geometry" />
        </mxCell>
        <mxCell id="nlBPueckVn01PJw-sLPn-13" style="edgeStyle=orthogonalEdgeStyle;rounded=0;orthogonalLoop=1;jettySize=auto;html=1;exitX=0.5;exitY=1;exitDx=0;exitDy=0;entryX=0.5;entryY=0;entryDx=0;entryDy=0;" parent="1" source="CqEqGzZt2KuTXMHUtGIb-1" target="CqEqGzZt2KuTXMHUtGIb-6" edge="1">
          <mxGeometry relative="1" as="geometry" />
        </mxCell>
        <mxCell id="CqEqGzZt2KuTXMHUtGIb-1" value="x[i] = y[i]" style="rhombus;whiteSpace=wrap;html=1;" parent="1" vertex="1">
          <mxGeometry x="508.23999999999995" y="1730" width="257.63" height="80" as="geometry" />
        </mxCell>
        <mxCell id="nlBPueckVn01PJw-sLPn-12" style="edgeStyle=orthogonalEdgeStyle;rounded=0;orthogonalLoop=1;jettySize=auto;html=1;exitX=0.5;exitY=1;exitDx=0;exitDy=0;entryX=0.5;entryY=0;entryDx=0;entryDy=0;" parent="1" source="CqEqGzZt2KuTXMHUtGIb-3" target="nlBPueckVn01PJw-sLPn-7" edge="1">
          <mxGeometry relative="1" as="geometry" />
        </mxCell>
        <mxCell id="ful76AXEt7FcOkuuH9QI-108" style="edgeStyle=orthogonalEdgeStyle;rounded=0;orthogonalLoop=1;jettySize=auto;html=1;exitX=1;exitY=0.5;exitDx=0;exitDy=0;" parent="1" source="CqEqGzZt2KuTXMHUtGIb-3" edge="1">
          <mxGeometry relative="1" as="geometry">
            <mxPoint x="640" y="1620" as="targetPoint" />
            <Array as="points">
              <mxPoint x="1067" y="1770" />
              <mxPoint x="1067" y="1920" />
              <mxPoint x="490" y="1920" />
              <mxPoint x="490" y="1620" />
            </Array>
          </mxGeometry>
        </mxCell>
        <mxCell id="CqEqGzZt2KuTXMHUtGIb-3" value="y[i] in x" style="rhombus;whiteSpace=wrap;html=1;" parent="1" vertex="1">
          <mxGeometry x="817.0600000000001" y="1730" width="230" height="80" as="geometry" />
        </mxCell>
        <mxCell id="CqEqGzZt2KuTXMHUtGIb-6" value="b = b + 1" style="whiteSpace=wrap;html=1;" parent="1" vertex="1">
          <mxGeometry x="514.9899999999999" y="1840" width="247.06" height="55" as="geometry" />
        </mxCell>
        <mxCell id="nlBPueckVn01PJw-sLPn-21" style="edgeStyle=orthogonalEdgeStyle;rounded=0;orthogonalLoop=1;jettySize=auto;html=1;exitX=0.5;exitY=1;exitDx=0;exitDy=0;" parent="1" source="CqEqGzZt2KuTXMHUtGIb-19" edge="1">
          <mxGeometry relative="1" as="geometry">
            <mxPoint x="1081.88" y="650" as="targetPoint" />
          </mxGeometry>
        </mxCell>
        <mxCell id="CqEqGzZt2KuTXMHUtGIb-19" value="&quot;Вы выиграли!&quot;" style="shape=parallelogram;perimeter=parallelogramPerimeter;whiteSpace=wrap;html=1;fixedSize=1;" parent="1" vertex="1">
          <mxGeometry x="1021.8800000000001" y="560" width="120" height="60" as="geometry" />
        </mxCell>
        <mxCell id="CqEqGzZt2KuTXMHUtGIb-25" style="edgeStyle=orthogonalEdgeStyle;rounded=0;orthogonalLoop=1;jettySize=auto;html=1;exitX=0.5;exitY=1;exitDx=0;exitDy=0;entryX=0.5;entryY=0;entryDx=0;entryDy=0;" parent="1" source="CqEqGzZt2KuTXMHUtGIb-23" target="CqEqGzZt2KuTXMHUtGIb-24" edge="1">
          <mxGeometry relative="1" as="geometry" />
        </mxCell>
        <mxCell id="ful76AXEt7FcOkuuH9QI-49" style="edgeStyle=orthogonalEdgeStyle;rounded=0;orthogonalLoop=1;jettySize=auto;html=1;exitX=1;exitY=0.5;exitDx=0;exitDy=0;entryX=0.5;entryY=0;entryDx=0;entryDy=0;" parent="1" source="CqEqGzZt2KuTXMHUtGIb-23" target="ful76AXEt7FcOkuuH9QI-48" edge="1">
          <mxGeometry relative="1" as="geometry">
            <Array as="points">
              <mxPoint x="533" y="820" />
              <mxPoint x="660" y="820" />
            </Array>
          </mxGeometry>
        </mxCell>
        <mxCell id="CqEqGzZt2KuTXMHUtGIb-23" value="Поле для ввода пустое" style="rhombus;whiteSpace=wrap;html=1;" parent="1" vertex="1">
          <mxGeometry x="267.5" y="750" width="265" height="110" as="geometry" />
        </mxCell>
        <mxCell id="CqEqGzZt2KuTXMHUtGIb-24" value="Исправьте, поле для ввода пустое" style="shape=parallelogram;perimeter=parallelogramPerimeter;whiteSpace=wrap;html=1;fixedSize=1;" parent="1" vertex="1">
          <mxGeometry x="268.75" y="1060" width="262.5" height="60" as="geometry" />
        </mxCell>
        <mxCell id="CqEqGzZt2KuTXMHUtGIb-27" value="Да" style="text;html=1;align=center;verticalAlign=middle;resizable=0;points=[];autosize=1;strokeColor=none;fillColor=none;" parent="1" vertex="1">
          <mxGeometry x="402.25" y="850" width="40" height="30" as="geometry" />
        </mxCell>
        <mxCell id="CqEqGzZt2KuTXMHUtGIb-29" value="Нет" style="text;html=1;align=center;verticalAlign=middle;resizable=0;points=[];autosize=1;strokeColor=none;fillColor=none;" parent="1" vertex="1">
          <mxGeometry x="532.5" y="790" width="40" height="30" as="geometry" />
        </mxCell>
        <mxCell id="nlBPueckVn01PJw-sLPn-3" value="Нет" style="text;html=1;align=center;verticalAlign=middle;resizable=0;points=[];autosize=1;strokeColor=none;fillColor=none;" parent="1" vertex="1">
          <mxGeometry x="506.89" y="540" width="40" height="30" as="geometry" />
        </mxCell>
        <mxCell id="nlBPueckVn01PJw-sLPn-7" value="a = a + 1" style="whiteSpace=wrap;html=1;" parent="1" vertex="1">
          <mxGeometry x="808.5300000000001" y="1840" width="247.06" height="55" as="geometry" />
        </mxCell>
        <mxCell id="nlBPueckVn01PJw-sLPn-25" style="edgeStyle=orthogonalEdgeStyle;rounded=0;orthogonalLoop=1;jettySize=auto;html=1;exitX=0.5;exitY=1;exitDx=0;exitDy=0;" parent="1" source="nlBPueckVn01PJw-sLPn-24" target="a-9ykdPwMbvV5pBF0nit-8" edge="1">
          <mxGeometry relative="1" as="geometry" />
        </mxCell>
        <mxCell id="nlBPueckVn01PJw-sLPn-24" value="1" style="ellipse;whiteSpace=wrap;html=1;aspect=fixed;" parent="1" vertex="1">
          <mxGeometry x="622.08" y="2130" width="30" height="30" as="geometry" />
        </mxCell>
        <mxCell id="nlBPueckVn01PJw-sLPn-27" value="Нет" style="text;html=1;align=center;verticalAlign=middle;resizable=0;points=[];autosize=1;strokeColor=none;fillColor=none;" parent="1" vertex="1">
          <mxGeometry x="741.87" y="1640" width="40" height="30" as="geometry" />
        </mxCell>
        <mxCell id="nlBPueckVn01PJw-sLPn-28" value="Да" style="text;html=1;align=center;verticalAlign=middle;resizable=0;points=[];autosize=1;strokeColor=none;fillColor=none;" parent="1" vertex="1">
          <mxGeometry x="631.0600000000001" y="1700" width="40" height="30" as="geometry" />
        </mxCell>
        <mxCell id="nlBPueckVn01PJw-sLPn-29" value="Нет" style="text;html=1;align=center;verticalAlign=middle;resizable=0;points=[];autosize=1;strokeColor=none;fillColor=none;" parent="1" vertex="1">
          <mxGeometry x="747.0600000000001" y="1745" width="40" height="30" as="geometry" />
        </mxCell>
        <mxCell id="nlBPueckVn01PJw-sLPn-30" value="Да" style="text;html=1;align=center;verticalAlign=middle;resizable=0;points=[];autosize=1;strokeColor=none;fillColor=none;" parent="1" vertex="1">
          <mxGeometry x="631.0600000000001" y="1800" width="40" height="30" as="geometry" />
        </mxCell>
        <mxCell id="nlBPueckVn01PJw-sLPn-31" value="Нет" style="text;html=1;align=center;verticalAlign=middle;resizable=0;points=[];autosize=1;strokeColor=none;fillColor=none;" parent="1" vertex="1">
          <mxGeometry x="1040" y="1745" width="40" height="30" as="geometry" />
        </mxCell>
        <mxCell id="nlBPueckVn01PJw-sLPn-32" value="Да" style="text;html=1;align=center;verticalAlign=middle;resizable=0;points=[];autosize=1;strokeColor=none;fillColor=none;" parent="1" vertex="1">
          <mxGeometry x="927.0600000000001" y="1800" width="40" height="30" as="geometry" />
        </mxCell>
        <mxCell id="ful76AXEt7FcOkuuH9QI-38" style="edgeStyle=orthogonalEdgeStyle;rounded=0;orthogonalLoop=1;jettySize=auto;html=1;exitX=0.5;exitY=1;exitDx=0;exitDy=0;entryX=0.5;entryY=0;entryDx=0;entryDy=0;" parent="1" target="ful76AXEt7FcOkuuH9QI-29" edge="1">
          <mxGeometry relative="1" as="geometry">
            <mxPoint x="1000" y="340" as="sourcePoint" />
          </mxGeometry>
        </mxCell>
        <mxCell id="ful76AXEt7FcOkuuH9QI-25" style="edgeStyle=orthogonalEdgeStyle;rounded=0;orthogonalLoop=1;jettySize=auto;html=1;exitX=0.5;exitY=1;exitDx=0;exitDy=0;entryX=0.5;entryY=0;entryDx=0;entryDy=0;" parent="1" target="ful76AXEt7FcOkuuH9QI-21" edge="1">
          <mxGeometry relative="1" as="geometry">
            <mxPoint x="401.46000000000004" y="350" as="sourcePoint" />
          </mxGeometry>
        </mxCell>
        <mxCell id="ful76AXEt7FcOkuuH9QI-12" style="edgeStyle=orthogonalEdgeStyle;rounded=0;orthogonalLoop=1;jettySize=auto;html=1;exitX=1;exitY=0.5;exitDx=0;exitDy=0;" parent="1" source="ful76AXEt7FcOkuuH9QI-7" edge="1">
          <mxGeometry relative="1" as="geometry">
            <mxPoint x="402.25" y="165.33333333333348" as="targetPoint" />
          </mxGeometry>
        </mxCell>
        <mxCell id="ful76AXEt7FcOkuuH9QI-7" value="2" style="ellipse;whiteSpace=wrap;html=1;aspect=fixed;" parent="1" vertex="1">
          <mxGeometry x="222.25" y="150" width="30" height="30" as="geometry" />
        </mxCell>
        <mxCell id="ful76AXEt7FcOkuuH9QI-8" value="2" style="ellipse;whiteSpace=wrap;html=1;aspect=fixed;" parent="1" vertex="1">
          <mxGeometry x="1170" y="410" width="30" height="30" as="geometry" />
        </mxCell>
        <mxCell id="ful76AXEt7FcOkuuH9QI-18" style="edgeStyle=orthogonalEdgeStyle;rounded=0;orthogonalLoop=1;jettySize=auto;html=1;exitX=0.5;exitY=1;exitDx=0;exitDy=0;" parent="1" source="ful76AXEt7FcOkuuH9QI-16" edge="1">
          <mxGeometry relative="1" as="geometry">
            <mxPoint x="400" y="10" as="targetPoint" />
            <Array as="points">
              <mxPoint x="70" y="490" />
              <mxPoint x="-70" y="490" />
              <mxPoint x="-70" y="10" />
              <mxPoint x="400" y="10" />
            </Array>
          </mxGeometry>
        </mxCell>
        <mxCell id="ful76AXEt7FcOkuuH9QI-16" value="x = 0&lt;br&gt;Очистка результатов прошлой игры" style="shape=parallelogram;perimeter=parallelogramPerimeter;whiteSpace=wrap;html=1;fixedSize=1;" parent="1" vertex="1">
          <mxGeometry x="-54.370000000000005" y="400" width="248.75" height="70" as="geometry" />
        </mxCell>
        <mxCell id="ful76AXEt7FcOkuuH9QI-22" style="edgeStyle=orthogonalEdgeStyle;rounded=0;orthogonalLoop=1;jettySize=auto;html=1;exitX=0.5;exitY=1;exitDx=0;exitDy=0;entryX=0.5;entryY=0;entryDx=0;entryDy=0;" parent="1" source="ful76AXEt7FcOkuuH9QI-21" target="a-9ykdPwMbvV5pBF0nit-7" edge="1">
          <mxGeometry relative="1" as="geometry" />
        </mxCell>
        <mxCell id="ful76AXEt7FcOkuuH9QI-102" style="edgeStyle=orthogonalEdgeStyle;rounded=0;orthogonalLoop=1;jettySize=auto;html=1;exitX=1;exitY=0.5;exitDx=0;exitDy=0;entryX=0.5;entryY=0;entryDx=0;entryDy=0;" parent="1" source="ful76AXEt7FcOkuuH9QI-21" target="ful76AXEt7FcOkuuH9QI-26" edge="1">
          <mxGeometry relative="1" as="geometry" />
        </mxCell>
        <mxCell id="ful76AXEt7FcOkuuH9QI-21" value="n &amp;lt;= 16" style="rhombus;whiteSpace=wrap;html=1;" parent="1" vertex="1">
          <mxGeometry x="276.85" y="385" width="243.75" height="100" as="geometry" />
        </mxCell>
        <mxCell id="ful76AXEt7FcOkuuH9QI-23" value="Да" style="text;html=1;align=center;verticalAlign=middle;resizable=0;points=[];autosize=1;strokeColor=none;fillColor=none;" parent="1" vertex="1">
          <mxGeometry x="400" y="475" width="40" height="30" as="geometry" />
        </mxCell>
        <mxCell id="ful76AXEt7FcOkuuH9QI-24" value="Нет" style="text;html=1;align=center;verticalAlign=middle;resizable=0;points=[];autosize=1;strokeColor=none;fillColor=none;" parent="1" vertex="1">
          <mxGeometry x="508.24" y="410" width="40" height="30" as="geometry" />
        </mxCell>
        <mxCell id="ful76AXEt7FcOkuuH9QI-61" style="edgeStyle=orthogonalEdgeStyle;rounded=0;orthogonalLoop=1;jettySize=auto;html=1;exitX=0.5;exitY=1;exitDx=0;exitDy=0;entryX=0.5;entryY=0;entryDx=0;entryDy=0;" parent="1" source="ful76AXEt7FcOkuuH9QI-26" target="ful76AXEt7FcOkuuH9QI-60" edge="1">
          <mxGeometry relative="1" as="geometry" />
        </mxCell>
        <mxCell id="ful76AXEt7FcOkuuH9QI-26" value="&quot;Вы проиграли&quot;" style="shape=parallelogram;perimeter=parallelogramPerimeter;whiteSpace=wrap;html=1;fixedSize=1;" parent="1" vertex="1">
          <mxGeometry x="590" y="260" width="120" height="60" as="geometry" />
        </mxCell>
        <mxCell id="xX_mOU44c7n5gJGWRsLI-5" style="edgeStyle=orthogonalEdgeStyle;rounded=0;orthogonalLoop=1;jettySize=auto;html=1;exitX=1;exitY=0.5;exitDx=0;exitDy=0;entryX=0;entryY=0.5;entryDx=0;entryDy=0;" edge="1" parent="1" source="ful76AXEt7FcOkuuH9QI-29" target="ful76AXEt7FcOkuuH9QI-8">
          <mxGeometry relative="1" as="geometry" />
        </mxCell>
        <mxCell id="ful76AXEt7FcOkuuH9QI-29" value="Кнопка &quot;Закрыть правила&quot; нажата" style="rhombus;whiteSpace=wrap;html=1;" parent="1" vertex="1">
          <mxGeometry x="878.13" y="375" width="243.75" height="100" as="geometry" />
        </mxCell>
        <mxCell id="ful76AXEt7FcOkuuH9QI-31" style="edgeStyle=orthogonalEdgeStyle;rounded=0;orthogonalLoop=1;jettySize=auto;html=1;exitX=1;exitY=0.5;exitDx=0;exitDy=0;" parent="1" source="ful76AXEt7FcOkuuH9QI-30" edge="1">
          <mxGeometry relative="1" as="geometry">
            <mxPoint x="1261.88" y="700.3333333333335" as="targetPoint" />
          </mxGeometry>
        </mxCell>
        <mxCell id="xX_mOU44c7n5gJGWRsLI-17" style="edgeStyle=orthogonalEdgeStyle;rounded=0;orthogonalLoop=1;jettySize=auto;html=1;exitX=0.5;exitY=1;exitDx=0;exitDy=0;entryX=0.5;entryY=0;entryDx=0;entryDy=0;" edge="1" parent="1" source="ful76AXEt7FcOkuuH9QI-30" target="xX_mOU44c7n5gJGWRsLI-16">
          <mxGeometry relative="1" as="geometry" />
        </mxCell>
        <mxCell id="ful76AXEt7FcOkuuH9QI-30" value="Хотите начать новую игру?" style="rhombus;whiteSpace=wrap;html=1;" parent="1" vertex="1">
          <mxGeometry x="960" y="650" width="243.75" height="100" as="geometry" />
        </mxCell>
        <mxCell id="ful76AXEt7FcOkuuH9QI-32" value="3" style="ellipse;whiteSpace=wrap;html=1;aspect=fixed;" parent="1" vertex="1">
          <mxGeometry x="1261.88" y="685" width="30" height="30" as="geometry" />
        </mxCell>
        <mxCell id="ful76AXEt7FcOkuuH9QI-51" style="edgeStyle=orthogonalEdgeStyle;rounded=0;orthogonalLoop=1;jettySize=auto;html=1;exitX=0.5;exitY=1;exitDx=0;exitDy=0;entryX=0.5;entryY=0;entryDx=0;entryDy=0;" parent="1" source="ful76AXEt7FcOkuuH9QI-48" target="ful76AXEt7FcOkuuH9QI-50" edge="1">
          <mxGeometry relative="1" as="geometry" />
        </mxCell>
        <mxCell id="ful76AXEt7FcOkuuH9QI-54" style="edgeStyle=orthogonalEdgeStyle;rounded=0;orthogonalLoop=1;jettySize=auto;html=1;exitX=1;exitY=0.5;exitDx=0;exitDy=0;" parent="1" source="ful76AXEt7FcOkuuH9QI-48" target="ful76AXEt7FcOkuuH9QI-53" edge="1">
          <mxGeometry relative="1" as="geometry" />
        </mxCell>
        <mxCell id="ful76AXEt7FcOkuuH9QI-48" value="Введенное число содержит больше 4 символов" style="rhombus;whiteSpace=wrap;html=1;" parent="1" vertex="1">
          <mxGeometry x="527.5" y="850" width="265" height="110" as="geometry" />
        </mxCell>
        <mxCell id="ful76AXEt7FcOkuuH9QI-50" value="Исправьте, число содержит больше 4-ех символов" style="shape=parallelogram;perimeter=parallelogramPerimeter;whiteSpace=wrap;html=1;fixedSize=1;" parent="1" vertex="1">
          <mxGeometry x="527.5" y="1060" width="262.5" height="60" as="geometry" />
        </mxCell>
        <mxCell id="ful76AXEt7FcOkuuH9QI-52" value="Да" style="text;html=1;align=center;verticalAlign=middle;resizable=0;points=[];autosize=1;strokeColor=none;fillColor=none;" parent="1" vertex="1">
          <mxGeometry x="660" y="965" width="40" height="30" as="geometry" />
        </mxCell>
        <mxCell id="ful76AXEt7FcOkuuH9QI-57" style="edgeStyle=orthogonalEdgeStyle;rounded=0;orthogonalLoop=1;jettySize=auto;html=1;exitX=0.5;exitY=1;exitDx=0;exitDy=0;entryX=0.5;entryY=0;entryDx=0;entryDy=0;" parent="1" source="ful76AXEt7FcOkuuH9QI-53" target="ful76AXEt7FcOkuuH9QI-56" edge="1">
          <mxGeometry relative="1" as="geometry" />
        </mxCell>
        <mxCell id="ful76AXEt7FcOkuuH9QI-69" style="edgeStyle=orthogonalEdgeStyle;rounded=0;orthogonalLoop=1;jettySize=auto;html=1;exitX=1;exitY=0.5;exitDx=0;exitDy=0;entryX=0.5;entryY=0;entryDx=0;entryDy=0;" parent="1" source="ful76AXEt7FcOkuuH9QI-53" target="ful76AXEt7FcOkuuH9QI-65" edge="1">
          <mxGeometry relative="1" as="geometry">
            <Array as="points">
              <mxPoint x="1076" y="980" />
              <mxPoint x="1076" y="1180" />
              <mxPoint x="362" y="1180" />
            </Array>
          </mxGeometry>
        </mxCell>
        <mxCell id="ful76AXEt7FcOkuuH9QI-53" value="Введенное число содержит меньше 4 символов" style="rhombus;whiteSpace=wrap;html=1;" parent="1" vertex="1">
          <mxGeometry x="792.5" y="925" width="265" height="110" as="geometry" />
        </mxCell>
        <mxCell id="ful76AXEt7FcOkuuH9QI-55" value="Нет" style="text;html=1;align=center;verticalAlign=middle;resizable=0;points=[];autosize=1;strokeColor=none;fillColor=none;" parent="1" vertex="1">
          <mxGeometry x="780" y="885" width="40" height="30" as="geometry" />
        </mxCell>
        <mxCell id="ful76AXEt7FcOkuuH9QI-56" value="Исправьте, число содержит меньше 4-ех символов" style="shape=parallelogram;perimeter=parallelogramPerimeter;whiteSpace=wrap;html=1;fixedSize=1;" parent="1" vertex="1">
          <mxGeometry x="792.49" y="1060" width="262.5" height="60" as="geometry" />
        </mxCell>
        <mxCell id="ful76AXEt7FcOkuuH9QI-58" value="Да" style="text;html=1;align=center;verticalAlign=middle;resizable=0;points=[];autosize=1;strokeColor=none;fillColor=none;" parent="1" vertex="1">
          <mxGeometry x="920" y="1030" width="40" height="30" as="geometry" />
        </mxCell>
        <mxCell id="ful76AXEt7FcOkuuH9QI-64" style="edgeStyle=orthogonalEdgeStyle;rounded=0;orthogonalLoop=1;jettySize=auto;html=1;exitX=0.5;exitY=1;exitDx=0;exitDy=0;entryX=0.5;entryY=0;entryDx=0;entryDy=0;" parent="1" source="ful76AXEt7FcOkuuH9QI-60" target="ful76AXEt7FcOkuuH9QI-63" edge="1">
          <mxGeometry relative="1" as="geometry" />
        </mxCell>
        <mxCell id="ful76AXEt7FcOkuuH9QI-105" style="edgeStyle=orthogonalEdgeStyle;rounded=0;orthogonalLoop=1;jettySize=auto;html=1;exitX=1;exitY=0.5;exitDx=0;exitDy=0;entryX=0.5;entryY=0;entryDx=0;entryDy=0;" parent="1" source="ful76AXEt7FcOkuuH9QI-60" target="ful76AXEt7FcOkuuH9QI-103" edge="1">
          <mxGeometry relative="1" as="geometry" />
        </mxCell>
        <mxCell id="ful76AXEt7FcOkuuH9QI-60" value="Хотите начать новую игру?" style="rhombus;whiteSpace=wrap;html=1;" parent="1" vertex="1">
          <mxGeometry x="583" y="360" width="243.75" height="100" as="geometry" />
        </mxCell>
        <mxCell id="ful76AXEt7FcOkuuH9QI-63" value="4" style="ellipse;whiteSpace=wrap;html=1;aspect=fixed;" parent="1" vertex="1">
          <mxGeometry x="689.87" y="485" width="30" height="30" as="geometry" />
        </mxCell>
        <mxCell id="ful76AXEt7FcOkuuH9QI-70" style="edgeStyle=orthogonalEdgeStyle;rounded=0;orthogonalLoop=1;jettySize=auto;html=1;exitX=1;exitY=0.5;exitDx=0;exitDy=0;entryX=0.5;entryY=0;entryDx=0;entryDy=0;" parent="1" source="ful76AXEt7FcOkuuH9QI-65" target="ful76AXEt7FcOkuuH9QI-66" edge="1">
          <mxGeometry relative="1" as="geometry" />
        </mxCell>
        <mxCell id="ful76AXEt7FcOkuuH9QI-75" style="edgeStyle=orthogonalEdgeStyle;rounded=0;orthogonalLoop=1;jettySize=auto;html=1;exitX=0.5;exitY=1;exitDx=0;exitDy=0;entryX=0.5;entryY=0;entryDx=0;entryDy=0;" parent="1" source="ful76AXEt7FcOkuuH9QI-65" target="ful76AXEt7FcOkuuH9QI-74" edge="1">
          <mxGeometry relative="1" as="geometry" />
        </mxCell>
        <mxCell id="ful76AXEt7FcOkuuH9QI-65" value="Введенное число содержит пробелы" style="rhombus;whiteSpace=wrap;html=1;" parent="1" vertex="1">
          <mxGeometry x="230" y="1200" width="265" height="110" as="geometry" />
        </mxCell>
        <mxCell id="ful76AXEt7FcOkuuH9QI-71" style="edgeStyle=orthogonalEdgeStyle;rounded=0;orthogonalLoop=1;jettySize=auto;html=1;exitX=1;exitY=0.5;exitDx=0;exitDy=0;entryX=0.5;entryY=0;entryDx=0;entryDy=0;" parent="1" source="ful76AXEt7FcOkuuH9QI-66" target="ful76AXEt7FcOkuuH9QI-67" edge="1">
          <mxGeometry relative="1" as="geometry" />
        </mxCell>
        <mxCell id="ful76AXEt7FcOkuuH9QI-78" style="edgeStyle=orthogonalEdgeStyle;rounded=0;orthogonalLoop=1;jettySize=auto;html=1;exitX=0.5;exitY=1;exitDx=0;exitDy=0;entryX=0.5;entryY=0;entryDx=0;entryDy=0;" parent="1" source="ful76AXEt7FcOkuuH9QI-66" target="ful76AXEt7FcOkuuH9QI-77" edge="1">
          <mxGeometry relative="1" as="geometry" />
        </mxCell>
        <mxCell id="ful76AXEt7FcOkuuH9QI-66" value="Введенное число содержит одинаковые символы" style="rhombus;whiteSpace=wrap;html=1;" parent="1" vertex="1">
          <mxGeometry x="516.87" y="1275" width="265" height="110" as="geometry" />
        </mxCell>
        <mxCell id="ful76AXEt7FcOkuuH9QI-81" style="edgeStyle=orthogonalEdgeStyle;rounded=0;orthogonalLoop=1;jettySize=auto;html=1;exitX=0.5;exitY=1;exitDx=0;exitDy=0;entryX=0.5;entryY=0;entryDx=0;entryDy=0;" parent="1" source="ful76AXEt7FcOkuuH9QI-67" target="ful76AXEt7FcOkuuH9QI-80" edge="1">
          <mxGeometry relative="1" as="geometry" />
        </mxCell>
        <mxCell id="ful76AXEt7FcOkuuH9QI-90" style="edgeStyle=orthogonalEdgeStyle;rounded=0;orthogonalLoop=1;jettySize=auto;html=1;exitX=1;exitY=0.5;exitDx=0;exitDy=0;entryX=0.5;entryY=0;entryDx=0;entryDy=0;" parent="1" source="ful76AXEt7FcOkuuH9QI-67" target="a-9ykdPwMbvV5pBF0nit-35" edge="1">
          <mxGeometry relative="1" as="geometry">
            <Array as="points">
              <mxPoint x="1087" y="1405" />
              <mxPoint x="1087" y="1610" />
              <mxPoint x="638" y="1610" />
            </Array>
          </mxGeometry>
        </mxCell>
        <mxCell id="ful76AXEt7FcOkuuH9QI-67" value="Введенное число содержит спецсимволы" style="rhombus;whiteSpace=wrap;html=1;" parent="1" vertex="1">
          <mxGeometry x="801.86" y="1350" width="265" height="110" as="geometry" />
        </mxCell>
        <mxCell id="ful76AXEt7FcOkuuH9QI-95" style="edgeStyle=orthogonalEdgeStyle;rounded=0;orthogonalLoop=1;jettySize=auto;html=1;exitX=0.5;exitY=1;exitDx=0;exitDy=0;" parent="1" source="ful76AXEt7FcOkuuH9QI-74" edge="1">
          <mxGeometry relative="1" as="geometry">
            <mxPoint x="400" y="644" as="targetPoint" />
            <Array as="points">
              <mxPoint x="361" y="1580" />
              <mxPoint x="210" y="1580" />
              <mxPoint x="210" y="644" />
            </Array>
          </mxGeometry>
        </mxCell>
        <mxCell id="ful76AXEt7FcOkuuH9QI-74" value="Исправьте, число содержит пробелы" style="shape=parallelogram;perimeter=parallelogramPerimeter;whiteSpace=wrap;html=1;fixedSize=1;" parent="1" vertex="1">
          <mxGeometry x="230" y="1500" width="262.5" height="60" as="geometry" />
        </mxCell>
        <mxCell id="ful76AXEt7FcOkuuH9QI-77" value="Исправьте, число содержит одинаковые символы" style="shape=parallelogram;perimeter=parallelogramPerimeter;whiteSpace=wrap;html=1;fixedSize=1;" parent="1" vertex="1">
          <mxGeometry x="517.0600000000001" y="1500" width="262.5" height="60" as="geometry" />
        </mxCell>
        <mxCell id="ful76AXEt7FcOkuuH9QI-80" value="Исправьте, число содержит больше 4-ех символов" style="shape=parallelogram;perimeter=parallelogramPerimeter;whiteSpace=wrap;html=1;fixedSize=1;" parent="1" vertex="1">
          <mxGeometry x="804.36" y="1500" width="262.5" height="60" as="geometry" />
        </mxCell>
        <mxCell id="ful76AXEt7FcOkuuH9QI-83" value="Да" style="text;html=1;align=center;verticalAlign=middle;resizable=0;points=[];autosize=1;strokeColor=none;fillColor=none;" parent="1" vertex="1">
          <mxGeometry x="930" y="1460" width="40" height="30" as="geometry" />
        </mxCell>
        <mxCell id="ful76AXEt7FcOkuuH9QI-84" value="Нет" style="text;html=1;align=center;verticalAlign=middle;resizable=0;points=[];autosize=1;strokeColor=none;fillColor=none;" parent="1" vertex="1">
          <mxGeometry x="760" y="1315" width="40" height="30" as="geometry" />
        </mxCell>
        <mxCell id="ful76AXEt7FcOkuuH9QI-85" value="Да" style="text;html=1;align=center;verticalAlign=middle;resizable=0;points=[];autosize=1;strokeColor=none;fillColor=none;" parent="1" vertex="1">
          <mxGeometry x="650.81" y="1390" width="40" height="30" as="geometry" />
        </mxCell>
        <mxCell id="ful76AXEt7FcOkuuH9QI-86" value="Нет" style="text;html=1;align=center;verticalAlign=middle;resizable=0;points=[];autosize=1;strokeColor=none;fillColor=none;" parent="1" vertex="1">
          <mxGeometry x="482.25" y="1230" width="40" height="30" as="geometry" />
        </mxCell>
        <mxCell id="ful76AXEt7FcOkuuH9QI-87" value="Да" style="text;html=1;align=center;verticalAlign=middle;resizable=0;points=[];autosize=1;strokeColor=none;fillColor=none;" parent="1" vertex="1">
          <mxGeometry x="360" y="1305" width="40" height="30" as="geometry" />
        </mxCell>
        <mxCell id="ful76AXEt7FcOkuuH9QI-88" value="Нет" style="text;html=1;align=center;verticalAlign=middle;resizable=0;points=[];autosize=1;strokeColor=none;fillColor=none;" parent="1" vertex="1">
          <mxGeometry x="1054.99" y="1380" width="40" height="30" as="geometry" />
        </mxCell>
        <mxCell id="ful76AXEt7FcOkuuH9QI-89" value="Нет" style="text;html=1;align=center;verticalAlign=middle;resizable=0;points=[];autosize=1;strokeColor=none;fillColor=none;" parent="1" vertex="1">
          <mxGeometry x="960" y="960" width="40" height="30" as="geometry" />
        </mxCell>
        <mxCell id="ful76AXEt7FcOkuuH9QI-94" style="edgeStyle=orthogonalEdgeStyle;rounded=0;orthogonalLoop=1;jettySize=auto;html=1;exitX=0.5;exitY=1;exitDx=0;exitDy=0;entryX=0.5;entryY=0;entryDx=0;entryDy=0;" parent="1" source="ful76AXEt7FcOkuuH9QI-92" target="a-9ykdPwMbvV5pBF0nit-16" edge="1">
          <mxGeometry relative="1" as="geometry" />
        </mxCell>
        <mxCell id="ful76AXEt7FcOkuuH9QI-92" value="n = n+1" style="whiteSpace=wrap;html=1;" parent="1" vertex="1">
          <mxGeometry x="513.5499999999998" y="1970" width="247.06" height="55" as="geometry" />
        </mxCell>
        <mxCell id="ful76AXEt7FcOkuuH9QI-96" value="" style="endArrow=none;html=1;rounded=0;entryX=0.5;entryY=1;entryDx=0;entryDy=0;" parent="1" target="ful76AXEt7FcOkuuH9QI-77" edge="1">
          <mxGeometry width="50" height="50" relative="1" as="geometry">
            <mxPoint x="360" y="1580" as="sourcePoint" />
            <mxPoint x="350" y="1440" as="targetPoint" />
            <Array as="points">
              <mxPoint x="648" y="1580" />
            </Array>
          </mxGeometry>
        </mxCell>
        <mxCell id="ful76AXEt7FcOkuuH9QI-97" value="" style="endArrow=none;html=1;rounded=0;entryX=0.5;entryY=1;entryDx=0;entryDy=0;" parent="1" target="ful76AXEt7FcOkuuH9QI-80" edge="1">
          <mxGeometry width="50" height="50" relative="1" as="geometry">
            <mxPoint x="650" y="1580" as="sourcePoint" />
            <mxPoint x="350" y="1440" as="targetPoint" />
            <Array as="points">
              <mxPoint x="936" y="1580" />
            </Array>
          </mxGeometry>
        </mxCell>
        <mxCell id="ful76AXEt7FcOkuuH9QI-98" value="" style="endArrow=none;html=1;rounded=0;entryX=0.5;entryY=1;entryDx=0;entryDy=0;" parent="1" target="CqEqGzZt2KuTXMHUtGIb-24" edge="1">
          <mxGeometry width="50" height="50" relative="1" as="geometry">
            <mxPoint x="210" y="1150" as="sourcePoint" />
            <mxPoint x="290" y="1100" as="targetPoint" />
            <Array as="points">
              <mxPoint x="400" y="1150" />
            </Array>
          </mxGeometry>
        </mxCell>
        <mxCell id="ful76AXEt7FcOkuuH9QI-99" value="" style="endArrow=none;html=1;rounded=0;entryX=0.5;entryY=1;entryDx=0;entryDy=0;" parent="1" target="ful76AXEt7FcOkuuH9QI-50" edge="1">
          <mxGeometry width="50" height="50" relative="1" as="geometry">
            <mxPoint x="390" y="1150" as="sourcePoint" />
            <mxPoint x="290" y="1100" as="targetPoint" />
            <Array as="points">
              <mxPoint x="659" y="1150" />
            </Array>
          </mxGeometry>
        </mxCell>
        <mxCell id="ful76AXEt7FcOkuuH9QI-100" value="" style="endArrow=none;html=1;rounded=0;entryX=0.5;entryY=1;entryDx=0;entryDy=0;" parent="1" target="ful76AXEt7FcOkuuH9QI-56" edge="1">
          <mxGeometry width="50" height="50" relative="1" as="geometry">
            <mxPoint x="660" y="1150" as="sourcePoint" />
            <mxPoint x="290" y="1100" as="targetPoint" />
            <Array as="points">
              <mxPoint x="924" y="1150" />
            </Array>
          </mxGeometry>
        </mxCell>
        <mxCell id="ful76AXEt7FcOkuuH9QI-103" value="5" style="ellipse;whiteSpace=wrap;html=1;aspect=fixed;" parent="1" vertex="1">
          <mxGeometry x="840" y="480" width="30" height="30" as="geometry" />
        </mxCell>
        <mxCell id="ful76AXEt7FcOkuuH9QI-109" value="" style="endArrow=none;html=1;rounded=0;entryX=0.5;entryY=1;entryDx=0;entryDy=0;" parent="1" target="nlBPueckVn01PJw-sLPn-7" edge="1">
          <mxGeometry width="50" height="50" relative="1" as="geometry">
            <mxPoint x="932" y="1920" as="sourcePoint" />
            <mxPoint x="840" y="1830" as="targetPoint" />
          </mxGeometry>
        </mxCell>
        <mxCell id="ful76AXEt7FcOkuuH9QI-110" value="" style="endArrow=none;html=1;rounded=0;entryX=0.5;entryY=1;entryDx=0;entryDy=0;" parent="1" target="CqEqGzZt2KuTXMHUtGIb-6" edge="1">
          <mxGeometry width="50" height="50" relative="1" as="geometry">
            <mxPoint x="639" y="1920" as="sourcePoint" />
            <mxPoint x="640" y="1830" as="targetPoint" />
          </mxGeometry>
        </mxCell>
        <mxCell id="xX_mOU44c7n5gJGWRsLI-2" style="edgeStyle=orthogonalEdgeStyle;rounded=0;orthogonalLoop=1;jettySize=auto;html=1;exitX=0;exitY=0.5;exitDx=0;exitDy=0;" edge="1" parent="1" source="xX_mOU44c7n5gJGWRsLI-1">
          <mxGeometry relative="1" as="geometry">
            <mxPoint x="400" y="15" as="targetPoint" />
          </mxGeometry>
        </mxCell>
        <mxCell id="xX_mOU44c7n5gJGWRsLI-1" value="5, 3" style="ellipse;whiteSpace=wrap;html=1;aspect=fixed;" vertex="1" parent="1">
          <mxGeometry x="570" width="30" height="30" as="geometry" />
        </mxCell>
        <mxCell id="xX_mOU44c7n5gJGWRsLI-3" value="Да" style="text;html=1;align=center;verticalAlign=middle;resizable=0;points=[];autosize=1;strokeColor=none;fillColor=none;" vertex="1" parent="1">
          <mxGeometry x="810" y="378" width="40" height="30" as="geometry" />
        </mxCell>
        <mxCell id="xX_mOU44c7n5gJGWRsLI-4" value="Нет" style="text;html=1;align=center;verticalAlign=middle;resizable=0;points=[];autosize=1;strokeColor=none;fillColor=none;" vertex="1" parent="1">
          <mxGeometry x="701.87" y="455" width="40" height="30" as="geometry" />
        </mxCell>
        <mxCell id="xX_mOU44c7n5gJGWRsLI-6" value="Да" style="text;html=1;align=center;verticalAlign=middle;resizable=0;points=[];autosize=1;strokeColor=none;fillColor=none;" vertex="1" parent="1">
          <mxGeometry x="1100" y="398" width="40" height="30" as="geometry" />
        </mxCell>
        <mxCell id="xX_mOU44c7n5gJGWRsLI-9" value="Функция открытия окна с правилами" style="shape=process;whiteSpace=wrap;html=1;backgroundOutline=1;" vertex="1" parent="1">
          <mxGeometry x="890" y="240" width="220" height="100" as="geometry" />
        </mxCell>
        <mxCell id="xX_mOU44c7n5gJGWRsLI-10" value="Функция с основным игровым процессом" style="shape=process;whiteSpace=wrap;html=1;backgroundOutline=1;" vertex="1" parent="1">
          <mxGeometry x="288.72" y="250" width="220" height="100" as="geometry" />
        </mxCell>
        <mxCell id="xX_mOU44c7n5gJGWRsLI-18" style="edgeStyle=orthogonalEdgeStyle;rounded=0;orthogonalLoop=1;jettySize=auto;html=1;exitX=0.5;exitY=1;exitDx=0;exitDy=0;entryX=0.5;entryY=0;entryDx=0;entryDy=0;" edge="1" parent="1" source="xX_mOU44c7n5gJGWRsLI-11" target="ful76AXEt7FcOkuuH9QI-16">
          <mxGeometry relative="1" as="geometry" />
        </mxCell>
        <mxCell id="xX_mOU44c7n5gJGWRsLI-11" value="Функция начала новой игры" style="shape=process;whiteSpace=wrap;html=1;backgroundOutline=1;" vertex="1" parent="1">
          <mxGeometry x="-40" y="240" width="220" height="100" as="geometry" />
        </mxCell>
        <mxCell id="xX_mOU44c7n5gJGWRsLI-15" value="Да" style="text;html=1;align=center;verticalAlign=middle;resizable=0;points=[];autosize=1;strokeColor=none;fillColor=none;" vertex="1" parent="1">
          <mxGeometry x="1191.88" y="668" width="40" height="30" as="geometry" />
        </mxCell>
        <mxCell id="xX_mOU44c7n5gJGWRsLI-21" style="edgeStyle=orthogonalEdgeStyle;rounded=0;orthogonalLoop=1;jettySize=auto;html=1;exitX=1;exitY=0.5;exitDx=0;exitDy=0;entryX=0;entryY=0.5;entryDx=0;entryDy=0;" edge="1" parent="1" source="xX_mOU44c7n5gJGWRsLI-16" target="xX_mOU44c7n5gJGWRsLI-20">
          <mxGeometry relative="1" as="geometry" />
        </mxCell>
        <mxCell id="xX_mOU44c7n5gJGWRsLI-37" style="edgeStyle=orthogonalEdgeStyle;rounded=0;orthogonalLoop=1;jettySize=auto;html=1;exitX=0.5;exitY=1;exitDx=0;exitDy=0;" edge="1" parent="1" source="xX_mOU44c7n5gJGWRsLI-16">
          <mxGeometry relative="1" as="geometry">
            <mxPoint x="400" y="170" as="targetPoint" />
            <Array as="points">
              <mxPoint x="1082" y="945" />
              <mxPoint x="1310" y="945" />
              <mxPoint x="1310" y="170" />
            </Array>
          </mxGeometry>
        </mxCell>
        <mxCell id="xX_mOU44c7n5gJGWRsLI-16" value="Главное игровое окно закрыто" style="rhombus;whiteSpace=wrap;html=1;" vertex="1" parent="1">
          <mxGeometry x="960" y="825" width="243.75" height="100" as="geometry" />
        </mxCell>
        <mxCell id="xX_mOU44c7n5gJGWRsLI-20" value="1" style="ellipse;whiteSpace=wrap;html=1;aspect=fixed;" vertex="1" parent="1">
          <mxGeometry x="1261.88" y="860" width="30" height="30" as="geometry" />
        </mxCell>
        <mxCell id="xX_mOU44c7n5gJGWRsLI-22" value="Да" style="text;html=1;align=center;verticalAlign=middle;resizable=0;points=[];autosize=1;strokeColor=none;fillColor=none;" vertex="1" parent="1">
          <mxGeometry x="1182.94" y="840" width="40" height="30" as="geometry" />
        </mxCell>
        <mxCell id="xX_mOU44c7n5gJGWRsLI-23" value="Нет" style="text;html=1;align=center;verticalAlign=middle;resizable=0;points=[];autosize=1;strokeColor=none;fillColor=none;" vertex="1" parent="1">
          <mxGeometry x="1077.94" y="740" width="40" height="30" as="geometry" />
        </mxCell>
        <mxCell id="xX_mOU44c7n5gJGWRsLI-26" style="edgeStyle=orthogonalEdgeStyle;rounded=0;orthogonalLoop=1;jettySize=auto;html=1;exitX=1;exitY=0.5;exitDx=0;exitDy=0;" edge="1" parent="1" source="xX_mOU44c7n5gJGWRsLI-24">
          <mxGeometry relative="1" as="geometry">
            <mxPoint x="1082.94" y="785.0588235294117" as="targetPoint" />
          </mxGeometry>
        </mxCell>
        <mxCell id="xX_mOU44c7n5gJGWRsLI-24" value="4" style="ellipse;whiteSpace=wrap;html=1;aspect=fixed;" vertex="1" parent="1">
          <mxGeometry x="991.8800000000001" y="770" width="30" height="30" as="geometry" />
        </mxCell>
        <mxCell id="xX_mOU44c7n5gJGWRsLI-28" value="Нет" style="text;html=1;align=center;verticalAlign=middle;resizable=0;points=[];autosize=1;strokeColor=none;fillColor=none;" vertex="1" parent="1">
          <mxGeometry x="1082.94" y="915" width="40" height="30" as="geometry" />
        </mxCell>
      </root>
    </mxGraphModel>
  </diagram>
</mxfile>
